# xmcd
#
# Track frame offsets: 
#        150
#        39412
#        75235
#        102855
#        140590
#        178127
#        206700
#        234107
#
# Disc length: 3567 seconds
#
# Revision: 2
# Processed by: cddbd v1.5.2PL0 Copyright (c) Steve Scherf et al.
# Submitted via: ExactAudioCopy v1.0b6
#
DISCID=5e0ded08
DTITLE=Various Artist - Metalheadz - : Full Metal Jacket [CD 2)
DYEAR=1996
DGENRE=Drum and Bass
TTITLE0=Peshay - Psychosis
TTITLE1=Doc Scott - Far Away
TTITLE2=Hidden Agenda - The Flute Tune
TTITLE3=Wax Doctor - The Spectrum
TTITLE4=Lemon D - In My Life
TTITLE5=Source Direct - A Made Up Sound
TTITLE6=Asylum - Da Bass II Dark
TTITLE7=Peshay - The Nocturnal (Back On The Firm)
EXTD=
EXTT0=
EXTT1=
EXTT2=
EXTT3=
EXTT4=
EXTT5=
EXTT6=
EXTT7=
PLAYORDER=
